<?xml version="1.0" encoding="UTF-8" standalone="no"?>
<!-- Created with Inkscape (http://www.inkscape.org/) -->

<svg
   width="110mm"
   height="110mm"
   viewBox="0 0 389.76359 389.76378"
   id="svg2"
   version="1.1"
   inkscape:version="1.1.1 (3bf5ae0d25, 2021-09-20)"
   sodipodi:docname="logo_small.svg"
   inkscape:export-filename="C:\Users\ian\Documents\Synced Documents\Design\GIMP-Inkscape\Heraldry\Escutcheon_rev1b_icon.png"
   inkscape:export-xdpi="42.48727"
   inkscape:export-ydpi="42.48727"
   xmlns:inkscape="http://www.inkscape.org/namespaces/inkscape"
   xmlns:sodipodi="http://sodipodi.sourceforge.net/DTD/sodipodi-0.dtd"
   xmlns="http://www.w3.org/2000/svg"
   xmlns:svg="http://www.w3.org/2000/svg"
   xmlns:rdf="http://www.w3.org/1999/02/22-rdf-syntax-ns#"
   xmlns:cc="http://creativecommons.org/ns#"
   xmlns:dc="http://purl.org/dc/elements/1.1/">
  <defs
     id="defs4">
    <clipPath
       id="artboard_clip_path">
      <path
         inkscape:connector-curvature="0"
         d="m 54,63 253,0 0,304 -253,0 z"
         id="path4245" />
    </clipPath>
    <clipPath
       id="artboard_clip_path-1">
      <path
         inkscape:connector-curvature="0"
         d="m 67.5,60.33333 229.5,0 0,219.36287 0,47.42085 L 217.37755,414 67.5,414 Z"
         id="path5094" />
    </clipPath>
    <clipPath
       id="inner_stroke_clip_path">
      <path
         inkscape:connector-curvature="0"
         d="m 225.26386,73.75472 c 0.87144,10.24352 1.23539,12.3994 3.15199,21.83528 2.10093,9.76082 1.88895,15.29296 -0.65888,20.94752 -3.97547,8.74084 -7.33495,11.67742 -13.75851,12.01407 -2.9198,0.15301 -4.28516,-0.36099 -7.24833,-2.6316 -2.00179,-1.48448 -3.67427,-3.06987 -3.69613,-3.48699 -0.0175,-0.33369 -0.77668,-2.05059 -1.6193,-3.76312 -2.15918,-4.4877 -2.25572,-4.7336 -2.90786,-13.98479 -0.54284,-7.16562 -0.32282,-9.3521 1.36454,-15.46347 2.6101,-9.25486 2.19772,-10.73898 -1.57924,-6.19114 -4.80898,5.60576 -6.72004,10.64138 -8.37348,22.18835 -1.46002,10.44936 -1.43816,10.86647 0.17606,17.72499 0.95628,3.88153 2.28562,8.49637 2.97013,10.38449 3.57631,9.18159 3.9399,12.92688 2.28715,21.29504 -1.1737,6.33541 -4.57833,14.79538 -8.35563,20.93263 -1.07611,1.81309 -1.90195,3.61306 -1.88009,4.03017 0.0219,0.41712 -0.63276,2.29177 -1.37081,4.17079 -0.82147,1.8834 -1.93763,6.12449 -2.51355,9.50076 -1.04184,5.65927 -0.98501,6.74377 0.607,14.77458 1.58763,7.94738 3.54901,13.44927 12.53622,34.89509 4.6998,11.46497 4.12316,18.02003 -2.51746,26.98423 -5.31862,7.05453 -12.58988,8.77403 -15.61827,3.66267 -2.38321,-3.97405 -2.11841,-10.09452 0.73722,-17.8565 4.3055,-12.02057 4.93424,-15.98517 3.34625,-22.34314 -1.50456,-6.36236 -3.86994,-11.59213 -7.1883,-15.85176 -2.33513,-3.0564 -2.54971,-5.55471 -1.17855,-11.31491 0.68121,-2.96352 -1.79088,-2.2484 -4.44363,1.40401 -3.59699,4.78937 -4.07637,8.41153 -2.99944,22.57593 0.99351,14.16876 0.65509,15.69223 -4.43441,19.13774 -3.39009,2.35261 -5.06292,2.35663 -6.766,0.18728 -3.67828,-4.74269 -1.13778,-16.92172 7.67432,-37.1254 7.76223,-17.89007 8.11411,-20.75268 4.38513,-34.44347 -4.65028,-16.90495 -9.33295,-26.44682 -17.80462,-36.45933 -5.88627,-6.96924 -11.05778,-9.87699 -17.75784,-10.02776 -4.1052,-0.11946 -4.93069,0.0911 -4.86948,1.25902 0.0393,0.75081 0.40364,1.31728 0.82076,1.29542 1.00107,-0.0525 8.50629,12.2693 10.15619,16.61639 0.68015,1.8047 1.99672,4.57986 2.91401,6.12118 4.11691,6.72735 1.76948,19.39817 -4.28174,23.64695 l -2.98609,2.08048 c 0,0 -1.66652,-7.39307 -9.52069,-10.3514 -10.84615,-3.94952 -10.13153,-10.28453 -9.99789,-18.90768 0.0666,-3.51688 0.28265,-7.37619 0.54639,-8.72844 0.80433,-3.80649 -1.72931,-2.66988 -4.40865,2.07139 -2.67934,4.74128 -3.87893,8.98674 -5.68611,20.79273 -1.60938,10.7918 -1.31208,16.46455 1.12325,23.02907 1.84735,4.92231 3.31765,7.43846 10.91102,18.24987 4.42873,6.29276 5.39814,10.42456 4.60586,19.24953 -0.6779,7.81516 -0.2921,10.38815 2.38074,15.09989 0.91729,1.54131 3.85753,8.16304 6.62656,14.71007 2.76902,6.54704 5.97702,13.48933 7.08739,15.52244 4.77956,8.19836 5.84881,17.42769 2.9582,24.5223 -2.82905,6.67313 -6.21878,7.43633 -10.25699,2.21058 -1.97958,-2.65675 -2.10672,-3.48662 -2.58729,-14.25255 -0.82997,-19.02914 -4.50318,-26.86723 -18.05891,-38.11903 -7.26074,-6.06069 -14.47268,-14.38253 -16.64935,-19.20392 -0.4827,-1.22948 -0.78508,-3.80685 -0.63099,-5.65527 0.34752,-2.94603 0.24223,-3.35878 -1.07942,-3.03855 -2.72235,0.72824 -4.24357,10.00967 -3.56119,21.43424 0.57309,9.33898 0.7924,10.33131 3.38182,15.04743 1.659,2.92452 3.98539,5.81407 5.62726,6.8155 5.0134,3.08333 9.25379,7.3783 11.21552,11.2908 3.66009,7.5878 3.68526,12.85656 -0.0866,14.30902 -2.37991,0.87758 -4.80319,-0.66845 -5.61922,-3.46985 -0.40364,-1.31727 -1.77259,-4.16853 -1.93463,-4.80551 -0.63847,-3.03163 -5.98297,-9.00038 -10.26779,-10.95076 -4.79409,-2.09102 -15.26531,-3.96815 -16.21392,-2.9146 -0.39526,0.43896 2.87938,3.86438 7.17696,7.65445 8.762,7.57139 10.39914,10.0788 13.81699,21.02539 1.72423,5.76526 2.45648,10.16046 3.11299,19.49506 0.84014,12.83838 2.06856,17.1239 6.86159,23.98313 6.32926,9.03732 10.05198,11.43543 44.20263,29.38753 5.0706,2.57844 11.3044,6.60164 13.9295,8.80631 6.65054,5.59073 15.66647,16.41126 21.69702,26.13343 5.20104,8.25995 6.47862,8.6949 8.17473,2.7504 1.20395,-4.16207 9.2981,-14.1226 13.27652,-16.4224 1.94531,-1.1894 7.55248,-2.73805 14.92465,-4.12823 6.54231,-1.26304 13.88825,-3.15377 16.34284,-4.20257 8.41768,-3.78723 15.0277,-13.33537 16.72487,-24.0481 1.50374,-9.61514 0.44323,-18.67763 -2.2263,-18.53772 -0.50053,0.0262 -0.79925,0.7111 -0.7599,1.46192 0.0652,2.84073 -2.94816,9.1889 -6.26393,12.9597 -3.54854,4.11762 -5.64758,5.56606 -10.97388,7.68554 -3.27572,1.3428 -3.35912,1.34716 -3.45532,-0.48814 -0.188,-3.58717 7.78882,-18.9789 14.6666,-28.20648 4.06255,-5.48298 17.7289,-17.65952 23.66136,-20.9819 5.19479,-3.03276 15.41349,-8.52172 18.75182,-15.05422 1.13767,-2.23458 2.88648,-4.94507 3.31627,-7.58348 0.96775,-6.52952 1.93391,-3.46029 0.61037,-14.34934 -1.17892,-9.72548 -7.00146,-13.44018 -9.90235,-19.31108 -1.7774,-3.58754 -2.04077,-3.8247 -2.96753,-2.35404 -0.54024,0.86484 -0.9446,2.72636 -0.8659,4.22798 0.0743,1.41818 0.61171,9.52943 0.01,10.81576 -0.59745,1.36973 -4.97038,9.4756 -8.65009,11.09054 -3.59628,1.61056 -7.30989,-7.01687 -7.50226,-10.68747 -0.13553,-2.58611 0.0276,-5.85709 0.3748,-7.21371 1.45022,-5.84799 4.2774,-23.73037 3.94842,-25.21886 -0.10965,-0.49617 0.43094,-2.9504 1.21743,-5.5012 0.99741,-3.3147 1.16899,-4.82942 0.46663,-5.46182 -0.69798,-0.54898 -1.18541,-0.27248 -1.87938,0.85136 -0.45244,0.94388 -1.92818,3.11252 -3.2633,4.77188 -5.56452,7.15108 -8.5779,13.49926 -10.93336,22.82442 -0.34716,1.35662 -0.44476,5.87894 -0.30958,10.05446 0.4281,9.76484 -0.28916,16.8292 -2.19582,21.94824 -1.69576,4.35512 -6.82166,13.49086 -10.18149,18.01686 -1.94567,2.77882 -9.86315,8.12922 -10.74111,7.3387 -0.26338,-0.23714 -0.78472,-5.39624 -1.02044,-11.49048 -0.62958,-12.01289 -0.76145,-11.33676 5.09883,-25.61376 2.73689,-6.83559 6.16739,-13.20562 14.55657,-27.11326 5.9339,-9.68 7.1069,-12.8366 7.66168,-19.80878 0.74384,-8.15322 -0.14178,-13.87879 -3.22228,-21.58064 -2.41348,-6.14741 -9.3351,-16.91038 -10.75328,-16.83605 -0.50054,0.0262 -0.54497,2.37082 0.0248,6.85817 0.81532,5.9802 0.72717,7.49056 -0.66113,11.32766 -2.25383,6.47566 -5.48546,7.06329 -8.1186,1.51294 -1.04006,-2.28774 -0.91623,-6.30952 0.95358,-23.30521 0.22877,-2.01964 -0.0565,-2.67391 -1.05755,-2.62144 -0.83423,0.0437 -1.20763,0.89981 -1.12019,2.56826 0.0743,1.41819 -4.42976,11.16009 -5.28218,14.04894 -1.65204,5.18935 -1.34852,9.47015 0.52436,18.07181 3.63173,16.62371 2.88825,23.18754 -2.95172,25.08298 -1.6422,0.58798 -3.45565,1.10126 -3.9562,1.12751 -2.16899,0.11367 -9.66404,-18.39888 -9.99194,-24.65559 -0.33664,-6.42356 3.38997,-21.50891 6.13926,-24.91542 0.78614,-0.96138 2.41123,-3.47244 3.6367,-5.62797 1.22546,-2.15553 4.42283,-6.58934 7.17648,-9.91243 5.2658,-6.46622 14.28304,-21.15962 15.18391,-24.72022 0.27249,-1.18541 0.78649,-2.55078 1.09833,-2.98538 2.39811,-3.72271 4.14148,-24.72707 2.85292,-34.94873 -0.98618,-7.6443 -2.60076,-12.91341 -8.13006,-25.84064 -5.8233,-13.74835 -6.22256,-14.9822 -7.1479,-19.86917 -0.46921,-2.56862 -1.25464,-4.78606 -1.84735,-4.922304 -0.76392,-0.210921 -0.80397,2.217084 -0.0637,9.957924 z"
         id="path5097" />
    </clipPath>
    <clipPath
       id="artboard_clip_path-6">
      <path
         inkscape:connector-curvature="0"
         d="m 54,63 252,0 0,311 -252,0 z"
         id="path5753" />
    </clipPath>
    <mask
       maskUnits="userSpaceOnUse"
       id="mask1392">
      <path
         style="fill:#ffffff;fill-opacity:1;fill-rule:evenodd;stroke:#000000;stroke-width:0.414194px;stroke-linecap:butt;stroke-linejoin:miter;stroke-opacity:1"
         d="m 340.84602,396.89345 19.03717,13.76535 21.6731,-15.81551 31.76215,-96.94317 -105.45882,0.58225 z"
         id="path1394"
         inkscape:connector-curvature="0"
         sodipodi:nodetypes="cccccc" />
    </mask>
  </defs>
  <sodipodi:namedview
     id="base"
     pagecolor="#ffffff"
     bordercolor="#666666"
     borderopacity="1.0"
     inkscape:pageopacity="0.0"
     inkscape:pageshadow="2"
     inkscape:zoom="1.4142136"
     inkscape:cx="92.984539"
     inkscape:cy="264.10438"
     inkscape:document-units="px"
     inkscape:current-layer="layer1"
     showgrid="false"
     inkscape:window-width="2560"
     inkscape:window-height="1361"
     inkscape:window-x="-9"
     inkscape:window-y="-9"
     inkscape:window-maximized="1"
     inkscape:pagecheckerboard="0"
     units="px" />
  <metadata
     id="metadata7">
    <rdf:RDF>
      <cc:Work
         rdf:about="">
        <dc:format>image/svg+xml</dc:format>
        <dc:type
           rdf:resource="http://purl.org/dc/dcmitype/StillImage" />
      </cc:Work>
    </rdf:RDF>
  </metadata>
  <g
     inkscape:label="Layer 1"
     inkscape:groupmode="layer"
     id="layer1"
     transform="translate(0,-662.59842)">
    <g
       transform="matrix(0.4318719,0,0,0.4318719,509.00156,371.43492)"
       style="fill:none;fill-opacity:1;stroke:none;stroke-dasharray:none;stroke-opacity:1"
       id="Anchor_(5)">
      <title
         id="title5758">Anchor (5)</title>
      <g
         id="Anchor_(5): Layer 2"
         clip-path="url(#artboard_clip_path-6)"
         transform="translate(-24.808944,54.579676)">
        <title
           id="title5761">Layer 2</title>
      </g>
    </g>
    <g
       id="g4152"
       transform="matrix(0.94889169,0,0,0.94889169,-146.64153,476.94929)">
      <path
         style="fill:none;fill-rule:evenodd;stroke:#ffffff;stroke-width:37.5;stroke-linecap:butt;stroke-linejoin:miter;stroke-miterlimit:4;stroke-dasharray:none;stroke-opacity:1"
         d="m 210.0486,219.58613 v 99.89661 C 215.93102,459.608 287.31675,532.44925 359.908,579.04683 469.21078,510.52849 506.84993,420.25512 509.78778,319.44743 v -99.89287 z"
         id="path5997"
         inkscape:connector-curvature="0"
         sodipodi:nodetypes="cccccc" />
      <path
         inkscape:connector-curvature="0"
         id="path6018"
         d="m 509.78711,219.55469 -149.78125,0.0156 V 578.98436 C 469.23252,510.47358 506.85014,420.22457 509.78711,319.44727 Z"
         style="fill:#ffffff;fill-opacity:1;fill-rule:evenodd;stroke:none;stroke-width:5;stroke-linecap:butt;stroke-linejoin:miter;stroke-miterlimit:4;stroke-dasharray:none;stroke-opacity:1" />
      <path
         sodipodi:nodetypes="cccccc"
         inkscape:connector-curvature="0"
         id="path6016"
         d="m 360.00586,219.57031 -149.95703,0.0156 v 99.89648 c 5.88242,140.12526 77.26812,212.96688 149.85937,259.56446 0.0329,-0.0207 0.0647,-0.0418 0.0977,-0.0625 z"
         style="fill:#0055d4;fill-opacity:1;fill-rule:evenodd;stroke:none;stroke-width:5;stroke-linecap:butt;stroke-linejoin:miter;stroke-miterlimit:4;stroke-dasharray:none;stroke-opacity:1" />
      <path
         inkscape:connector-curvature="0"
         id="path5977"
         d="m 359.13699,281.87405 c -0.075,-0.075 -2.31562,-0.8717 -4.97917,-1.77043 -18.86461,-6.36531 -36.77455,-10.09986 -55.8428,-11.64424 -6.12661,-0.49621 -24.7713,-0.41651 -30.625,0.13091 -19.47997,1.82171 -37.23072,5.81288 -54.19839,12.18623 -1.44068,0.54114 -2.71666,0.98389 -2.83551,0.98389 -0.1203,0 -0.2161,-13.68749 -0.2161,-30.875 v -30.875 h 149.5 149.5 v 31.0088 c 0,29.45245 -0.022,30.99734 -0.4375,30.78059 -0.24062,-0.12551 -2.6875,-0.97959 -5.4375,-1.89796 -18.7824,-6.27241 -36.35787,-9.91235 -55.25,-11.44246 -6.12661,-0.49621 -24.7713,-0.41651 -30.625,0.13091 -19.6356,1.83627 -36.78655,5.70428 -54.47362,12.28531 -2.9211,1.08688 -3.7806,1.29725 -4.07941,0.99845 z"
         style="fill:#000000;fill-opacity:1;fill-rule:evenodd;stroke:#000000;stroke-width:2;stroke-linecap:round;stroke-linejoin:round;stroke-miterlimit:4;stroke-dasharray:none;stroke-opacity:1" />
      <g
         id="g4153"
         transform="matrix(2.4143251,0,0,2.4143251,-508.67727,-413.08442)"
         mask="url(#mask1392)">
        <path
           style="fill:#ffffff;fill-opacity:1;fill-rule:evenodd;stroke:none;stroke-width:1.20338;stroke-linecap:butt;stroke-linejoin:miter;stroke-miterlimit:4;stroke-dasharray:none;stroke-opacity:1"
           d="m 398.50264,308.04523 h -32.19889 l -0.12215,7.10744 -6.85333,-0.0234 h 0.66764 l -6.93055,-0.0523 -0.0475,-7.03266 h -32.19893 l 21.86538,21.86537 v 2.42146 l 0.67515,13.08383 33.2726,-12.76995 0.004,-0.0846 v -2.65065 l 21.86537,-21.8654 z m -22.3935,35.04887 -32.23376,12.37385 0.77225,14.96469 30.68424,-11.77844 z m -1.3004,26.01073 -29.64293,11.37737 0.76978,14.96471 28.09341,-10.78199 z m -1.30292,26.01072 -27.05206,10.38339 0.77229,14.96471 25.50005,-9.788 z m -1.3004,26.00827 -24.4612,9.38936 0.76975,14.96471 22.91171,-8.79397 z m -1.3029,26.01075 -21.87034,8.39288 0.77225,14.96721 20.31833,-7.8 z m -1.30291,26.00825 -19.27949,7.4014 0.77228,14.96471 17.72996,-6.80602 z m -1.30043,26.01072 -16.68862,6.4074 0.11464,2.23213 8.27078,8.88615 h 0.0373 l 7.82988,-8.83132 0.43595,-8.69436 z"
           id="path8080"
           inkscape:connector-curvature="0" />
        <path
           style="fill:#0055d4;fill-opacity:1;fill-rule:evenodd;stroke:none;stroke-width:1.20338;stroke-linecap:butt;stroke-linejoin:miter;stroke-miterlimit:4;stroke-dasharray:none;stroke-opacity:1"
           d="m 366.30469,308.04492 -0.12305,7.10742 L 360,315.13084 v 23.89648 l 16.63281,-6.38281 0.004,-0.084 v -2.65039 l 21.86523,-21.86524 h -32.19726 z m 9.80469,35.04883 L 360,349.27734 v 15.26368 l 15.33203,-5.88672 z M 374.80859,369.10547 360,374.78906 v 15.25977 l 14.0293,-5.38477 z M 373.50586,395.11523 360,400.29883 v 15.26172 l 12.72656,-4.88477 z M 372.20508,421.12305 360,425.80859 v 15.26172 l 11.42578,-4.38672 z M 370.90234,447.13477 360,451.31836 v 15.26172 l 10.12305,-3.88477 z M 369.59961,473.14258 360,476.82812 v 15.26172 l 8.82227,-3.38672 z M 368.29883,499.1543 360,502.33984 v 14.33985 h 0.0332 l 7.83008,-8.83203 z"
           id="path6011"
           inkscape:connector-curvature="0" />
      </g>
      <path
         sodipodi:nodetypes="cccccc"
         inkscape:connector-curvature="0"
         id="path4142"
         d="m 210.0486,219.58613 v 99.89661 C 215.93102,459.608 287.31675,532.44925 359.908,579.04683 469.21078,510.52849 506.84993,420.25512 509.78778,319.44743 v -99.89287 z"
         style="fill:none;fill-rule:evenodd;stroke:#000000;stroke-width:18.75;stroke-linecap:butt;stroke-linejoin:miter;stroke-miterlimit:4;stroke-dasharray:none;stroke-opacity:1" />
    </g>
  </g>
</svg>
